<svg id="Layer_9" data-name="Layer 9" xmlns="http://www.w3.org/2000/svg" viewBox="0 0 71.43 95.24"><defs><style>.cls-1{fill:#2c7c29;}.cls-2{fill:#8c89a2;}.cls-3{fill:#b6b4d3;}.cls-4{fill:#acf2ab;}</style></defs><polygon points="66.67 71.43 66.67 76.19 66.67 80.96 61.91 80.96 61.91 85.72 57.15 85.72 52.38 85.72 52.38 90.48 47.62 90.48 42.86 90.48 38.1 90.48 33.34 90.48 33.34 85.72 28.58 85.72 23.81 85.72 19.05 85.72 14.29 85.72 9.53 85.72 4.77 85.72 4.77 90.48 9.53 90.48 14.29 90.48 19.05 90.48 23.81 90.48 28.58 90.48 28.58 95.24 33.34 95.24 38.1 95.24 42.86 95.24 47.62 95.24 52.38 95.24 57.15 95.24 57.15 90.48 61.91 90.48 66.67 90.48 66.67 85.72 71.43 85.72 71.43 80.96 71.43 76.19 71.43 71.43 66.67 71.43"/><polygon class="cls-1" points="61.91 76.19 57.15 76.19 52.38 76.19 47.62 76.19 42.86 76.19 42.86 80.96 38.1 80.96 38.1 76.19 33.34 76.19 33.34 80.96 33.34 85.72 33.34 90.48 38.1 90.48 42.86 90.48 47.62 90.48 52.38 90.48 52.38 85.72 47.62 85.72 47.62 80.96 52.38 80.96 52.38 85.72 57.15 85.72 61.91 85.72 61.91 80.96 66.67 80.96 66.67 76.19 66.67 71.43 61.91 71.43 61.91 76.19"/><polygon points="61.91 14.29 61.91 19.05 61.91 23.81 61.91 28.58 61.91 33.34 57.15 33.34 57.15 38.1 52.38 38.1 52.38 42.86 52.38 47.62 57.15 47.62 57.15 42.86 61.91 42.86 61.91 47.62 61.91 52.39 61.91 57.15 61.91 61.91 61.91 66.67 61.91 71.43 66.67 71.43 66.67 66.67 66.67 61.91 66.67 57.15 66.67 52.39 66.67 47.62 66.67 42.86 66.67 38.1 66.67 33.34 66.67 28.58 66.67 23.81 66.67 19.05 66.67 14.29 66.67 9.53 66.67 4.77 61.91 4.77 61.91 9.53 61.91 14.29"/><rect x="57.15" y="71.43" width="4.76" height="4.76"/><polygon class="cls-2" points="57.15 66.67 57.15 71.43 61.91 71.43 61.91 66.67 61.91 61.91 57.15 61.91 57.15 66.67"/><rect class="cls-3" x="57.15" y="57.15" width="4.76" height="4.76"/><rect class="cls-3" x="57.15" y="42.86" width="4.76" height="4.76"/><rect class="cls-3" x="57.15" y="28.58" width="4.76" height="4.76"/><rect class="cls-3" x="57.15" y="4.77" width="4.76" height="4.76"/><polygon points="61.91 4.77 61.91 0 57.15 0 52.38 0 52.38 4.77 57.15 4.77 61.91 4.77"/><polygon class="cls-4" points="52.38 71.43 47.62 71.43 47.62 76.19 52.38 76.19 57.15 76.19 57.15 71.43 52.38 71.43"/><polygon points="57.15 71.43 57.15 66.67 57.15 61.91 52.38 61.91 52.38 66.67 47.62 66.67 47.62 71.43 52.38 71.43 57.15 71.43"/><rect class="cls-3" x="52.38" y="47.62" width="4.77" height="4.77"/><rect class="cls-3" x="52.38" y="33.34" width="4.77" height="4.76"/><polygon class="cls-2" points="52.38 14.29 57.15 14.29 57.15 19.05 57.15 23.81 57.15 28.58 61.91 28.58 61.91 23.81 61.91 19.05 61.91 14.29 61.91 9.53 57.15 9.53 57.15 4.77 52.38 4.77 52.38 9.53 52.38 14.29"/><rect class="cls-4" x="47.62" y="80.96" width="4.76" height="4.76"/><rect x="42.86" y="71.43" width="4.76" height="4.76"/><rect class="cls-3" x="42.86" y="61.91" width="4.76" height="4.76"/><rect x="38.1" y="76.19" width="4.76" height="4.77"/><polygon class="cls-3" points="42.86 23.81 42.86 19.05 38.1 19.05 33.34 19.05 33.34 23.81 38.1 23.81 42.86 23.81"/><polygon points="42.86 4.77 42.86 0 38.1 0 33.34 0 33.34 4.77 38.1 4.77 42.86 4.77"/><polygon points="33.34 71.43 28.58 71.43 28.58 76.19 33.34 76.19 38.1 76.19 38.1 71.43 33.34 71.43"/><polygon points="33.34 42.86 33.34 47.62 38.1 47.62 42.86 47.62 47.62 47.62 47.62 42.86 47.62 38.1 42.86 38.1 38.1 38.1 33.34 38.1 33.34 42.86"/><polygon class="cls-3" points="38.1 38.1 38.1 33.34 33.34 33.34 28.58 33.34 28.58 38.1 33.34 38.1 38.1 38.1"/><polygon class="cls-2" points="33.34 9.53 33.34 14.29 38.1 14.29 42.86 14.29 42.86 9.53 38.1 9.53 33.34 9.53"/><polygon class="cls-3" points="38.1 9.53 42.86 9.53 42.86 4.77 38.1 4.77 33.34 4.77 33.34 9.53 38.1 9.53"/><polygon class="cls-4" points="33.34 76.19 28.58 76.19 28.58 80.96 28.58 85.72 33.34 85.72 33.34 80.96 33.34 76.19"/><rect class="cls-3" x="28.58" y="57.15" width="4.76" height="4.76"/><polygon class="cls-2" points="33.34 42.86 33.34 38.1 28.58 38.1 28.58 42.86 28.58 47.62 33.34 47.62 33.34 42.86"/><rect x="23.81" y="76.19" width="4.77" height="4.77"/><path class="cls-2" d="M40.1,88.09h9.52v4.76h4.76V88.09h4.76V83.33H54.38V78.57h4.76v4.76H63.9V78.57h4.77V73.81h4.76V64.28H68.67v4.77H63.9V50h4.77V45.24H54.38V40.47H44.86v4.77H30.57v9.52H40.1V50h9.52v4.76h9.52V69.05H54.38v4.76H49.62V69.05h-19v4.76h4.76v4.76H30.57v4.76h4.76v9.52H40.1Zm0-14.28h4.76v4.76H40.1Z" transform="translate(-11.52 -16.66)"/><polygon points="23.81 14.29 19.05 14.29 19.05 19.05 19.05 23.81 19.05 28.58 23.81 28.58 28.58 28.58 33.34 28.58 33.34 23.81 33.34 19.05 38.1 19.05 42.86 19.05 42.86 23.81 42.86 28.58 47.62 28.58 52.38 28.58 57.15 28.58 57.15 23.81 57.15 19.05 57.15 14.29 52.38 14.29 52.38 9.53 52.38 4.77 47.62 4.77 42.86 4.77 42.86 9.53 42.86 14.29 38.1 14.29 33.34 14.29 33.34 9.53 33.34 4.77 28.58 4.77 23.81 4.77 23.81 9.53 23.81 14.29"/><polygon points="23.81 66.67 19.05 66.67 19.05 71.43 19.05 76.19 23.81 76.19 23.81 71.43 23.81 66.67"/><polygon class="cls-3" points="23.81 57.15 19.05 57.15 19.05 52.39 23.81 52.39 28.58 52.39 33.34 52.39 38.1 52.39 38.1 57.15 42.86 57.15 42.86 52.39 47.62 52.39 47.62 47.62 42.86 47.62 38.1 47.62 33.34 47.62 28.58 47.62 23.81 47.62 19.05 47.62 19.05 42.86 14.29 42.86 14.29 47.62 14.29 52.39 14.29 57.15 14.29 61.91 19.05 61.91 23.81 61.91 23.81 57.15"/><rect class="cls-2" x="19.05" y="9.53" width="4.76" height="4.76"/><rect class="cls-3" x="19.05" y="4.77" width="4.76" height="4.76"/><rect x="19.05" width="4.76" height="4.77"/><polygon points="19.05 66.67 19.05 61.91 14.29 61.91 14.29 57.15 14.29 52.39 14.29 47.62 14.29 42.86 19.05 42.86 19.05 47.62 23.81 47.62 28.58 47.62 28.58 42.86 28.58 38.1 23.81 38.1 19.05 38.1 19.05 33.34 14.29 33.34 14.29 28.58 14.29 23.81 14.29 19.05 14.29 14.29 14.29 9.53 19.05 9.53 19.05 4.77 14.29 4.77 9.53 4.77 9.53 9.53 9.53 14.29 9.53 19.05 9.53 23.81 9.53 28.58 9.53 33.34 9.53 38.1 9.53 42.86 9.53 47.62 9.53 52.39 9.53 57.15 9.53 61.91 9.53 66.67 14.29 66.67 19.05 66.67"/><rect class="cls-3" x="14.29" y="28.58" width="4.76" height="4.76"/><polygon class="cls-2" points="19.05 23.81 19.05 19.05 19.05 14.29 14.29 14.29 14.29 19.05 14.29 23.81 14.29 28.58 19.05 28.58 19.05 23.81"/><rect class="cls-3" x="14.29" y="9.53" width="4.76" height="4.76"/><polygon class="cls-1" points="14.29 85.72 19.05 85.72 23.81 85.72 28.58 85.72 28.58 80.96 23.81 80.96 23.81 76.19 19.05 76.19 19.05 71.43 14.29 71.43 9.53 71.43 9.53 76.19 9.53 80.96 4.77 80.96 4.77 85.72 9.53 85.72 14.29 85.72"/><polygon class="cls-4" points="14.29 71.43 19.05 71.43 19.05 66.67 14.29 66.67 9.53 66.67 9.53 71.43 14.29 71.43"/><rect class="cls-4" x="4.77" y="76.19" width="4.76" height="4.77"/><polygon points="9.53 71.43 9.53 66.67 4.77 66.67 4.77 71.43 4.77 76.19 9.53 76.19 9.53 71.43"/><polygon points="4.77 76.19 0 76.19 0 80.96 0 85.72 4.77 85.72 4.77 80.96 4.77 76.19"/></svg>