<svg xmlns="http://www.w3.org/2000/svg" viewBox="0 0 76.19 91.19"><defs><style>.cls-1{fill:#f4e89d;}.cls-2{fill:#d6a676;}.cls-3{fill:#b78248;}.cls-4{fill:#5e3a0f;}</style></defs><g id="Layer_1_copy_4" data-name="Layer 1 copy 4"><polygon class="cls-1" points="68.67 62.62 68.67 57.86 63.91 57.86 59.15 57.86 59.15 53.09 54.39 53.09 49.62 53.09 44.86 53.09 40.1 53.09 35.34 53.09 30.58 53.09 25.82 53.09 21.05 53.09 16.29 53.09 16.29 57.86 11.53 57.86 6.77 57.86 6.77 62.62 2.01 62.62 2.01 67.38 2.01 72.14 2.01 76.9 2.01 81.67 6.77 81.67 6.77 86.43 11.53 86.43 11.53 91.19 16.29 91.19 21.05 91.19 25.82 91.19 30.58 91.19 35.34 91.19 40.1 91.19 44.86 91.19 49.62 91.19 54.39 91.19 59.15 91.19 63.91 91.19 63.91 86.43 68.67 86.43 68.67 81.67 73.43 81.67 73.43 76.9 73.43 72.14 73.43 67.38 73.43 62.62 68.67 62.62"/></g><g id="House"><polygon class="cls-2" points="4.77 28.58 4.77 33.34 4.77 38.1 9.53 38.1 9.53 33.34 9.53 28.58 9.53 23.81 9.53 19.05 4.77 19.05 4.77 23.81 4.77 28.58"/><polygon class="cls-2" points="23.81 19.05 23.81 14.29 19.05 14.29 14.29 14.29 14.29 19.05 19.05 19.05 23.81 19.05"/><rect class="cls-2" x="52.38" y="14.29" width="4.77" height="4.76"/><polygon class="cls-2" points="28.58 14.29 28.58 19.05 33.34 19.05 33.34 14.29 33.34 9.53 38.1 9.53 42.86 9.53 42.86 14.29 42.86 19.05 47.62 19.05 47.62 14.29 47.62 9.53 47.62 4.77 42.86 4.77 38.1 4.77 33.34 4.77 28.58 4.77 28.58 9.53 28.58 14.29"/><polygon class="cls-3" points="38.1 42.86 33.34 42.86 28.58 42.86 28.58 47.62 23.81 47.62 19.05 47.62 14.29 47.62 14.29 52.38 14.29 57.15 14.29 61.91 14.29 66.67 19.05 66.67 23.81 66.67 28.58 66.67 33.34 66.67 33.34 61.91 33.34 57.15 33.34 52.38 38.1 52.38 42.86 52.38 42.86 57.15 42.86 61.91 42.86 66.67 47.62 66.67 52.38 66.67 52.38 61.91 52.38 57.15 52.38 52.38 52.38 47.62 47.62 47.62 47.62 42.86 42.86 42.86 38.1 42.86"/><polygon class="cls-4" points="23.81 47.62 28.58 47.62 28.58 42.86 23.81 42.86 19.05 42.86 14.29 42.86 14.29 47.62 19.05 47.62 23.81 47.62"/><polygon class="cls-4" points="38.1 38.1 33.34 38.1 28.58 38.1 28.58 42.86 33.34 42.86 38.1 42.86 42.86 42.86 47.62 42.86 47.62 38.1 42.86 38.1 38.1 38.1"/><polygon class="cls-3" points="61.91 28.58 61.91 23.81 61.91 19.05 61.91 14.29 57.15 14.29 57.15 19.05 52.38 19.05 52.38 23.81 47.62 23.81 42.86 23.81 38.1 23.81 33.34 23.81 28.58 23.81 23.81 23.81 23.81 19.05 19.05 19.05 14.29 19.05 9.53 19.05 9.53 23.81 9.53 28.58 9.53 33.34 9.53 38.1 14.29 38.1 19.05 38.1 23.81 38.1 28.58 38.1 28.58 33.34 33.34 33.34 38.1 33.34 42.86 33.34 47.62 33.34 47.62 38.1 52.38 38.1 57.15 38.1 61.91 38.1 61.91 33.34 61.91 28.58"/><polygon class="cls-4" points="52.38 47.62 52.38 52.38 52.38 57.15 52.38 61.91 52.38 66.67 57.15 66.67 61.91 66.67 61.91 61.91 61.91 57.15 61.91 52.38 61.91 47.62 61.91 42.86 57.15 42.86 52.38 42.86 47.62 42.86 47.62 47.62 52.38 47.62"/><polygon class="cls-4" points="61.91 19.05 61.91 23.81 61.91 28.58 61.91 33.34 61.91 38.1 66.67 38.1 71.43 38.1 71.43 33.34 71.43 28.58 71.43 23.81 71.43 19.05 66.67 19.05 61.91 19.05"/><polygon points="71.43 19.05 71.43 23.81 71.43 28.58 71.43 33.34 71.43 38.1 66.67 38.1 61.91 38.1 57.15 38.1 52.38 38.1 47.62 38.1 47.62 42.86 52.38 42.86 57.15 42.86 61.91 42.86 61.91 47.62 61.91 52.38 61.91 57.15 61.91 61.91 61.91 66.67 57.15 66.67 52.38 66.67 47.62 66.67 42.86 66.67 42.86 61.91 42.86 57.15 42.86 52.38 38.1 52.38 33.34 52.38 33.34 57.15 33.34 61.91 33.34 66.67 28.58 66.67 23.81 66.67 19.05 66.67 14.29 66.67 14.29 61.91 14.29 57.15 14.29 52.38 14.29 47.62 14.29 42.86 19.05 42.86 23.81 42.86 28.58 42.86 28.58 38.1 23.81 38.1 19.05 38.1 14.29 38.1 9.53 38.1 4.77 38.1 4.77 33.34 4.77 28.58 4.77 23.81 4.77 19.05 0 19.05 0 23.81 0 28.58 0 33.34 0 38.1 0 42.86 4.77 42.86 9.53 42.86 9.53 47.62 9.53 52.38 9.53 57.15 9.53 61.91 9.53 66.67 4.77 66.67 4.77 71.43 9.53 71.43 9.53 76.19 14.29 76.19 19.05 76.19 23.81 76.19 28.58 76.19 33.34 76.19 38.1 76.19 42.86 76.19 47.62 76.19 52.38 76.19 57.15 76.19 61.91 76.19 66.67 76.19 66.67 71.43 71.43 71.43 71.43 66.67 66.67 66.67 66.67 61.91 66.67 57.15 66.67 52.38 66.67 47.62 66.67 42.86 71.43 42.86 76.19 42.86 76.19 38.1 76.19 33.34 76.19 28.58 76.19 23.81 76.19 19.05 71.43 19.05"/><polygon points="42.86 33.34 38.1 33.34 33.34 33.34 28.58 33.34 28.58 38.1 33.34 38.1 38.1 38.1 42.86 38.1 47.62 38.1 47.62 33.34 42.86 33.34"/><polygon points="38.1 4.77 42.86 4.77 47.62 4.77 47.62 0 42.86 0 38.1 0 33.34 0 28.58 0 28.58 4.77 33.34 4.77 38.1 4.77"/><polygon points="14.29 19.05 14.29 14.29 19.05 14.29 23.81 14.29 23.81 19.05 23.81 23.81 28.58 23.81 33.34 23.81 38.1 23.81 42.86 23.81 47.62 23.81 52.38 23.81 52.38 19.05 52.38 14.29 57.15 14.29 61.91 14.29 61.91 19.05 66.67 19.05 71.43 19.05 71.43 14.29 66.67 14.29 66.67 9.53 61.91 9.53 57.15 9.53 52.38 9.53 52.38 4.77 47.62 4.77 47.62 9.53 47.62 14.29 47.62 19.05 42.86 19.05 42.86 14.29 42.86 9.53 38.1 9.53 33.34 9.53 33.34 14.29 33.34 19.05 28.58 19.05 28.58 14.29 28.58 9.53 28.58 4.77 23.81 4.77 23.81 9.53 19.05 9.53 14.29 9.53 9.53 9.53 9.53 14.29 4.77 14.29 4.77 19.05 9.53 19.05 14.29 19.05"/></g></svg>