<?xml version="1.0" encoding="utf-8"?>
<!-- Generator: Adobe Illustrator 25.0.0, SVG Export Plug-In . SVG Version: 6.00 Build 0)  -->
<svg version="1.1" xmlns="http://www.w3.org/2000/svg" xmlns:xlink="http://www.w3.org/1999/xlink" x="0px" y="0px"
	 viewBox="0 0 100 121.58" style="enable-background:new 0 0 100 121.58;" xml:space="preserve">
<style type="text/css">
	.st0{display:none;}
	.st1{display:inline;fill:#F4E89D;}
	.st2{display:inline;fill:#C02B00;stroke:#000000;stroke-miterlimit:10;}
	.st3{display:inline;fill:#FFFFFF;stroke:#000000;stroke-miterlimit:10;}
	.st4{display:inline;fill:#FCFF41;stroke:#000000;stroke-miterlimit:10;}
	.st5{display:inline;}
	.st6{fill:#C02B00;}
	.st7{fill:#FFFFFF;}
	.st8{fill:#FFF515;}
	.st9{fill:#005B09;}
	.st10{fill:#009515;}
	.st11{fill:#00AD00;}
	.st12{fill:#63DB63;}
	.st13{fill:#00A004;}
	.st14{fill:#367536;}
	.st15{fill:#D6A676;}
	.st16{fill:#B78248;}
	.st17{fill:#5E3A0F;}
</style>
<g id="Layer_1_copy_4" class="st0">
	<polygon class="st1" points="82.95,93.01 82.95,88.25 78.19,88.25 73.43,88.25 73.43,83.48 68.67,83.48 63.9,83.48 59.14,83.48 
		54.38,83.48 49.62,83.48 44.86,83.48 40.1,83.48 35.33,83.48 30.57,83.48 30.57,88.25 25.81,88.25 21.05,88.25 21.05,93.01 
		16.29,93.01 16.29,97.77 16.29,102.53 16.29,107.29 16.29,112.06 21.05,112.06 21.05,116.82 25.81,116.82 25.81,121.58 
		30.57,121.58 35.33,121.58 40.1,121.58 44.86,121.58 49.62,121.58 54.38,121.58 59.14,121.58 63.9,121.58 68.67,121.58 
		73.43,121.58 78.19,121.58 78.19,116.82 82.95,116.82 82.95,112.06 87.71,112.06 87.71,107.29 87.71,102.53 87.71,97.77 
		87.71,93.01 	"/>
</g>
<g id="Layer_5" class="st0">
	<path class="st2" d="M83.06,55.99c0,18.67-33.8,64.98-33.8,64.98s-33.8-46.31-33.8-64.98s15.13-33.8,33.8-33.8
		S83.06,37.32,83.06,55.99z"/>
	<circle class="st3" cx="49.26" cy="55.44" r="25.05"/>
	<path class="st4" d="M60.77,67.96l-7.31-1.78c-0.79-0.19-1.63,0.02-2.24,0.56l-5.61,5.02c-1.53,1.37-3.96,0.39-4.12-1.66
		l-0.57-7.51c-0.06-0.81-0.52-1.54-1.22-1.95l-6.51-3.79c-1.77-1.03-1.59-3.65,0.3-4.43l6.96-2.86c0.75-0.31,1.31-0.97,1.48-1.77
		l1.59-7.36c0.43-2.01,2.98-2.64,4.31-1.08l4.87,5.74c0.53,0.62,1.33,0.94,2.14,0.86l7.49-0.76c2.04-0.21,3.43,2.02,2.36,3.76
		l-3.95,6.41c-0.43,0.69-0.49,1.55-0.16,2.3l3.04,6.89C64.45,66.43,62.77,68.44,60.77,67.96z"/>
</g>
<g id="pointer" class="st0">
	<g class="st5">
		<path class="st6" d="M80.95,42.68v-4.77v-4.76v-4.76h-4.76v-4.76v-4.76h-4.76V14.1h-4.76V9.34H61.9h-4.76h-4.76h-4.76h-4.76H38.1
			h-4.77v4.76h-4.76v4.77h-4.76v4.76v4.76h-4.76v4.76v4.76v4.77v4.76v4.76h4.76v4.76v4.76h4.76v4.76v4.77h4.76v4.76h4.77v4.76h4.76
			v4.76v4.76h4.76v4.77v4.76h4.76v-4.76v-4.77h4.76v-4.76v-4.76h4.76v-4.76h4.77v-4.76h4.76v-4.77v-4.76h4.76v-4.76V52.2h4.76v-4.76
			V42.68z M28.57,23.63h4.76v-4.76h4.77V14.1h4.76h4.76h4.76h4.76h4.76v4.77h4.77v4.76h4.76v4.76v4.76v4.76v4.77v4.76h-4.76v4.76
			H61.9v4.76h-4.76h-4.76h-4.76h-4.76H38.1V52.2h-4.77v-4.76h-4.76v-4.76v-4.77v-4.76v-4.76V23.63z"/>
		<rect x="61.9" y="47.44" width="4.77" height="4.76"/>
		<polygon points="52.38,52.2 47.62,52.2 42.86,52.2 38.1,52.2 38.1,56.96 42.86,56.96 47.62,56.96 52.38,56.96 57.14,56.96 
			61.9,56.96 61.9,52.2 57.14,52.2 		"/>
		<rect x="33.33" y="47.44" width="4.77" height="4.76"/>
		<polygon class="st7" points="57.14,47.44 52.38,47.44 52.38,42.68 47.62,42.68 47.62,47.44 42.86,47.44 38.1,47.44 38.1,52.2 
			42.86,52.2 47.62,52.2 52.38,52.2 57.14,52.2 61.9,52.2 61.9,47.44 		"/>
		<polygon class="st8" points="57.14,37.91 57.14,33.15 57.14,28.39 52.38,28.39 47.62,28.39 42.86,28.39 42.86,33.15 42.86,37.91 
			42.86,42.68 47.62,42.68 47.62,37.91 47.62,33.15 52.38,33.15 52.38,37.91 52.38,42.68 57.14,42.68 		"/>
		<polygon class="st7" points="61.9,28.39 61.9,33.15 61.9,37.91 61.9,42.68 61.9,47.44 66.67,47.44 66.67,42.68 66.67,37.91 
			66.67,33.15 66.67,28.39 66.67,23.63 61.9,23.63 		"/>
		<polygon points="52.38,33.15 47.62,33.15 47.62,37.91 47.62,42.68 52.38,42.68 52.38,37.91 		"/>
		<polygon class="st7" points="33.33,33.15 33.33,37.91 33.33,42.68 33.33,47.44 38.1,47.44 38.1,42.68 38.1,37.91 38.1,33.15 
			38.1,28.39 38.1,23.63 33.33,23.63 33.33,28.39 		"/>
		<polygon points="47.62,47.44 47.62,42.68 42.86,42.68 42.86,37.91 42.86,33.15 42.86,28.39 47.62,28.39 52.38,28.39 57.14,28.39 
			57.14,33.15 57.14,37.91 57.14,42.68 52.38,42.68 52.38,47.44 57.14,47.44 61.9,47.44 61.9,42.68 61.9,37.91 61.9,33.15 
			61.9,28.39 61.9,23.63 57.14,23.63 52.38,23.63 47.62,23.63 42.86,23.63 38.1,23.63 38.1,28.39 38.1,33.15 38.1,37.91 38.1,42.68 
			38.1,47.44 42.86,47.44 		"/>
		<polygon class="st7" points="42.86,23.63 47.62,23.63 52.38,23.63 57.14,23.63 61.9,23.63 61.9,18.87 57.14,18.87 52.38,18.87 
			47.62,18.87 42.86,18.87 38.1,18.87 38.1,23.63 		"/>
		<polygon points="28.57,37.91 28.57,42.68 28.57,47.44 33.33,47.44 33.33,42.68 33.33,37.91 33.33,33.15 33.33,28.39 33.33,23.63 
			28.57,23.63 28.57,28.39 28.57,33.15 		"/>
		<polygon points="66.67,33.15 66.67,37.91 66.67,42.68 66.67,47.44 71.43,47.44 71.43,42.68 71.43,37.91 71.43,33.15 71.43,28.39 
			71.43,23.63 66.67,23.63 66.67,28.39 		"/>
		<rect x="33.33" y="18.87" width="4.77" height="4.76"/>
		<rect x="61.9" y="18.87" width="4.77" height="4.76"/>
		<polygon points="47.62,18.87 52.38,18.87 57.14,18.87 61.9,18.87 61.9,14.1 57.14,14.1 52.38,14.1 47.62,14.1 42.86,14.1 
			38.1,14.1 38.1,18.87 42.86,18.87 		"/>
		<polygon points="80.95,23.63 80.95,18.87 80.95,14.1 76.19,14.1 76.19,9.34 71.43,9.34 71.43,4.58 66.67,4.58 61.9,4.58 
			57.14,4.58 52.38,4.58 47.62,4.58 42.86,4.58 38.1,4.58 33.33,4.58 28.57,4.58 28.57,9.34 23.81,9.34 23.81,14.1 19.05,14.1 
			19.05,18.87 19.05,23.63 14.29,23.63 14.29,28.39 14.29,33.15 14.29,37.91 14.29,42.68 14.29,47.44 14.29,52.2 19.05,52.2 
			19.05,47.44 19.05,42.68 19.05,37.91 19.05,33.15 19.05,28.39 23.81,28.39 23.81,23.63 23.81,18.87 28.57,18.87 28.57,14.1 
			33.33,14.1 33.33,9.34 38.1,9.34 42.86,9.34 47.62,9.34 52.38,9.34 57.14,9.34 61.9,9.34 66.67,9.34 66.67,14.1 71.43,14.1 
			71.43,18.87 76.19,18.87 76.19,23.63 76.19,28.39 80.95,28.39 80.95,33.15 80.95,37.91 80.95,42.68 80.95,47.44 80.95,52.2 
			85.71,52.2 85.71,47.44 85.71,42.68 85.71,37.91 85.71,33.15 85.71,28.39 85.71,23.63 		"/>
		<polygon points="76.19,56.96 76.19,61.72 80.95,61.72 80.95,56.96 80.95,52.2 76.19,52.2 		"/>
		<polygon points="23.81,52.2 19.05,52.2 19.05,56.96 19.05,61.72 23.81,61.72 23.81,56.96 		"/>
		<polygon points="71.43,66.48 71.43,71.25 76.19,71.25 76.19,66.48 76.19,61.72 71.43,61.72 		"/>
		<polygon points="28.57,61.72 23.81,61.72 23.81,66.48 23.81,71.25 28.57,71.25 28.57,66.48 		"/>
		<rect x="66.67" y="71.25" width="4.76" height="4.76"/>
		<rect x="61.9" y="76.01" width="4.77" height="4.76"/>
		<rect x="28.57" y="71.25" width="4.76" height="4.76"/>
		<rect x="33.33" y="76.01" width="4.77" height="4.76"/>
		<polygon points="42.86,80.77 38.1,80.77 38.1,85.53 38.1,90.29 42.86,90.29 42.86,85.53 		"/>
		<polygon points="57.14,85.53 57.14,90.29 61.9,90.29 61.9,85.53 61.9,80.77 57.14,80.77 		"/>
		<polygon points="47.62,90.29 42.86,90.29 42.86,95.06 42.86,99.82 47.62,99.82 47.62,95.06 		"/>
		<polygon points="52.38,95.06 52.38,99.82 57.14,99.82 57.14,95.06 57.14,90.29 52.38,90.29 		"/>
		<rect x="47.62" y="99.82" width="4.76" height="4.76"/>
	</g>
</g>
<g id="Layer_1_copy_2">
	<g>
		<polygon class="st9" points="57.14,99.82 52.38,99.82 47.62,99.82 42.86,99.82 42.86,104.58 47.62,104.58 52.38,104.58 
			57.14,104.58 61.9,104.58 66.67,104.58 66.67,99.82 61.9,99.82 		"/>
		<polygon class="st9" points="38.1,95.06 33.33,95.06 28.57,95.06 23.81,95.06 19.05,95.06 19.05,99.82 23.81,99.82 28.57,99.82 
			33.33,99.82 38.1,99.82 42.86,99.82 42.86,95.06 		"/>
		<polygon class="st9" points="85.71,85.53 85.71,80.77 85.71,76.01 85.71,71.25 85.71,66.48 85.71,61.72 85.71,56.96 85.71,52.2 
			85.71,47.44 85.71,42.68 80.95,42.68 80.95,37.91 80.95,33.15 76.19,33.15 76.19,28.39 71.43,28.39 71.43,23.63 66.67,23.63 
			61.9,23.63 61.9,28.39 66.67,28.39 66.67,33.15 71.43,33.15 71.43,37.91 71.43,42.68 76.19,42.68 76.19,47.44 76.19,52.2 
			76.19,56.96 76.19,61.72 76.19,66.48 76.19,71.25 76.19,76.01 76.19,80.77 76.19,85.53 76.19,90.29 76.19,95.06 71.43,95.06 
			66.67,95.06 66.67,99.82 71.43,99.82 76.19,99.82 80.95,99.82 85.71,99.82 85.71,95.06 85.71,90.29 		"/>
		<polygon class="st9" points="52.38,18.87 52.38,23.63 57.14,23.63 61.9,23.63 61.9,18.87 57.14,18.87 		"/>
		<path class="st10" d="M71.43,95.06h4.76v-4.77v-4.76v-4.76v-4.76v-4.76v-4.77v-4.76v-4.76V52.2v-4.76v-4.76h-4.76v-4.77v-4.76
			h-4.76v4.76v4.77v4.76H61.9v-4.76v-4.77v-4.76h4.77v-4.76H61.9v-4.76h-4.76h-4.76v-4.76h-4.76h-4.76v4.76H38.1h-4.77v4.76h-4.76
			v4.76h-4.76v4.76v4.77h-4.76v4.76v4.76v4.76v4.76v4.76v4.77v4.76v4.76v4.76v4.76v4.77h4.76h4.76h4.76h4.77h4.76v4.76h4.76h4.76
			h4.76h4.76h4.77v-4.76H71.43z M38.1,33.15h4.76v4.76v4.77v4.76H38.1v-4.76v-4.77V33.15z"/>
		<polygon points="61.9,37.91 61.9,42.68 61.9,47.44 66.67,47.44 66.67,42.68 66.67,37.91 66.67,33.15 61.9,33.15 		"/>
		<polygon points="38.1,47.44 42.86,47.44 42.86,42.68 42.86,37.91 42.86,33.15 38.1,33.15 38.1,37.91 38.1,42.68 		"/>
		<polygon points="85.71,42.68 85.71,47.44 85.71,52.2 85.71,56.96 85.71,61.72 85.71,66.48 85.71,71.25 85.71,76.01 85.71,80.77 
			85.71,85.53 85.71,90.29 85.71,95.06 90.48,95.06 90.48,90.29 90.48,85.53 90.48,80.77 90.48,76.01 90.48,71.25 90.48,66.48 
			90.48,61.72 90.48,56.96 90.48,52.2 90.48,47.44 90.48,42.68 		"/>
		<polygon points="80.95,42.68 85.71,42.68 85.71,37.91 85.71,33.15 80.95,33.15 80.95,37.91 		"/>
		<rect x="76.19" y="28.39" width="4.76" height="4.76"/>
		<rect x="71.43" y="23.63" width="4.76" height="4.76"/>
		<polygon points="66.67,23.63 71.43,23.63 71.43,18.87 66.67,18.87 61.9,18.87 61.9,23.63 		"/>
		<polygon points="52.38,18.87 57.14,18.87 61.9,18.87 61.9,14.1 57.14,14.1 52.38,14.1 47.62,14.1 42.86,14.1 42.86,18.87 
			47.62,18.87 		"/>
		<polygon points="42.86,23.63 42.86,18.87 38.1,18.87 33.33,18.87 33.33,23.63 38.1,23.63 		"/>
		<rect x="28.57" y="23.63" width="4.76" height="4.76"/>
		<rect x="23.81" y="28.39" width="4.76" height="4.76"/>
		<polygon points="23.81,37.91 23.81,33.15 19.05,33.15 19.05,37.91 19.05,42.68 23.81,42.68 		"/>
		<polygon points="19.05,85.53 19.05,80.77 19.05,76.01 19.05,71.25 19.05,66.48 19.05,61.72 19.05,56.96 19.05,52.2 19.05,47.44 
			19.05,42.68 14.29,42.68 14.29,47.44 14.29,52.2 14.29,56.96 14.29,61.72 14.29,66.48 14.29,71.25 14.29,76.01 14.29,80.77 
			14.29,85.53 14.29,90.29 14.29,95.06 19.05,95.06 19.05,90.29 		"/>
	</g>
</g>
<g id="Layer_1_copy" class="st0">
	<g class="st5">
		<polygon points="90.48,93.53 90.48,88.77 85.71,88.77 80.95,88.77 80.95,84.01 80.95,79.24 80.95,74.48 80.95,69.72 80.95,64.96 
			80.95,60.2 80.95,55.44 80.95,50.67 76.19,50.67 71.43,50.67 71.43,55.44 76.19,55.44 76.19,60.2 76.19,64.96 76.19,69.72 
			76.19,74.48 76.19,79.24 76.19,84.01 76.19,88.77 76.19,93.53 71.43,93.53 71.43,98.29 66.67,98.29 66.67,103.05 61.9,103.05 
			61.9,107.82 57.14,107.82 52.38,107.82 47.62,107.82 42.86,107.82 38.1,107.82 38.1,103.05 33.33,103.05 33.33,98.29 28.57,98.29 
			28.57,93.53 23.81,93.53 23.81,88.77 23.81,84.01 23.81,79.24 23.81,74.48 23.81,69.72 23.81,64.96 23.81,60.2 23.81,55.44 
			28.57,55.44 28.57,50.67 23.81,50.67 19.05,50.67 19.05,55.44 19.05,60.2 19.05,64.96 19.05,69.72 19.05,74.48 19.05,79.24 
			19.05,84.01 19.05,88.77 19.05,93.53 19.05,98.29 23.81,98.29 23.81,103.05 28.57,103.05 28.57,107.82 33.33,107.82 33.33,112.58 
			38.1,112.58 42.86,112.58 47.62,112.58 52.38,112.58 57.14,112.58 61.9,112.58 66.67,112.58 66.67,107.82 71.43,107.82 
			76.19,107.82 80.95,107.82 85.71,107.82 85.71,103.05 90.48,103.05 95.24,103.05 95.24,98.29 95.24,93.53 		"/>
		<polygon class="st11" points="28.57,50.67 28.57,45.91 23.81,45.91 23.81,41.15 23.81,36.39 19.05,36.39 19.05,41.15 19.05,45.91 
			19.05,50.67 23.81,50.67 		"/>
		<polygon class="st11" points="33.33,88.77 33.33,84.01 33.33,79.24 33.33,74.48 33.33,69.72 33.33,64.96 33.33,60.2 28.57,60.2 
			28.57,55.44 23.81,55.44 23.81,60.2 23.81,64.96 23.81,69.72 23.81,74.48 23.81,79.24 23.81,84.01 23.81,88.77 23.81,93.53 
			28.57,93.53 28.57,98.29 33.33,98.29 33.33,93.53 		"/>
		<polygon class="st11" points="52.38,98.29 52.38,93.53 52.38,88.77 52.38,84.01 52.38,79.24 52.38,74.48 52.38,69.72 52.38,64.96 
			47.62,64.96 42.86,64.96 42.86,69.72 42.86,74.48 42.86,79.24 42.86,84.01 42.86,88.77 42.86,93.53 42.86,98.29 42.86,103.05 
			42.86,107.82 47.62,107.82 52.38,107.82 52.38,103.05 		"/>
		<polygon class="st11" points="47.62,60.2 52.38,60.2 52.38,55.44 52.38,50.67 47.62,50.67 42.86,50.67 42.86,55.44 42.86,60.2 		
			"/>
		<polygon class="st12" points="42.86,98.29 42.86,93.53 42.86,88.77 42.86,84.01 42.86,79.24 42.86,74.48 42.86,69.72 42.86,64.96 
			42.86,60.2 38.1,60.2 33.33,60.2 33.33,64.96 33.33,69.72 33.33,74.48 33.33,79.24 33.33,84.01 33.33,88.77 33.33,93.53 
			33.33,98.29 33.33,103.05 38.1,103.05 38.1,107.82 42.86,107.82 42.86,103.05 		"/>
		<polygon class="st12" points="23.81,41.15 23.81,45.91 28.57,45.91 28.57,50.67 33.33,50.67 33.33,55.44 38.1,55.44 42.86,55.44 
			42.86,50.67 47.62,50.67 52.38,50.67 52.38,55.44 57.14,55.44 61.9,55.44 61.9,50.67 66.67,50.67 66.67,45.91 61.9,45.91 
			57.14,45.91 52.38,45.91 47.62,45.91 42.86,45.91 38.1,45.91 33.33,45.91 33.33,41.15 28.57,41.15 28.57,36.39 33.33,36.39 
			33.33,31.63 28.57,31.63 23.81,31.63 23.81,36.39 		"/>
		<rect x="28.57" y="50.67" class="st11" width="4.76" height="4.77"/>
		<polygon class="st12" points="61.9,93.53 61.9,88.77 61.9,84.01 61.9,79.24 61.9,74.48 61.9,69.72 61.9,64.96 61.9,60.2 
			57.14,60.2 57.14,64.96 57.14,69.72 57.14,74.48 57.14,79.24 57.14,84.01 57.14,88.77 57.14,93.53 57.14,98.29 57.14,103.05 
			57.14,107.82 61.9,107.82 61.9,103.05 61.9,98.29 		"/>
		<rect x="66.67" y="41.15" class="st12" width="4.76" height="4.76"/>
		<polygon class="st12" points="66.67,31.63 66.67,36.39 71.43,36.39 71.43,41.15 76.19,41.15 76.19,36.39 76.19,31.63 71.43,31.63 
					"/>
		<polygon class="st12" points="38.1,31.63 42.86,31.63 47.62,31.63 52.38,31.63 57.14,31.63 61.9,31.63 66.67,31.63 66.67,26.86 
			61.9,26.86 57.14,26.86 52.38,26.86 47.62,26.86 42.86,26.86 38.1,26.86 33.33,26.86 33.33,31.63 		"/>
		<polygon class="st13" points="57.14,98.29 57.14,93.53 57.14,88.77 57.14,84.01 57.14,79.24 57.14,74.48 57.14,69.72 57.14,64.96 
			52.38,64.96 52.38,69.72 52.38,74.48 52.38,79.24 52.38,84.01 52.38,88.77 52.38,93.53 52.38,98.29 52.38,103.05 52.38,107.82 
			57.14,107.82 57.14,103.05 		"/>
		<rect x="52.38" y="55.44" class="st13" width="4.76" height="4.76"/>
		<polygon class="st14" points="66.67,60.2 66.67,64.96 66.67,69.72 66.67,74.48 66.67,79.24 66.67,84.01 66.67,88.77 66.67,93.53 
			66.67,98.29 71.43,98.29 71.43,93.53 76.19,93.53 76.19,88.77 76.19,84.01 76.19,79.24 76.19,74.48 76.19,69.72 76.19,64.96 
			76.19,60.2 76.19,55.44 71.43,55.44 71.43,60.2 		"/>
		<polygon class="st13" points="66.67,88.77 66.67,84.01 66.67,79.24 66.67,74.48 66.67,69.72 66.67,64.96 66.67,60.2 61.9,60.2 
			61.9,64.96 61.9,69.72 61.9,74.48 61.9,79.24 61.9,84.01 61.9,88.77 61.9,93.53 61.9,98.29 61.9,103.05 66.67,103.05 66.67,98.29 
			66.67,93.53 		"/>
		<rect x="61.9" y="50.67" class="st13" width="4.77" height="4.77"/>
		<polygon class="st14" points="80.95,41.15 80.95,36.39 76.19,36.39 76.19,41.15 71.43,41.15 71.43,45.91 66.67,45.91 66.67,50.67 
			66.67,55.44 71.43,55.44 71.43,50.67 76.19,50.67 80.95,50.67 80.95,45.91 		"/>
		<polygon points="71.43,41.15 71.43,36.39 66.67,36.39 66.67,31.63 61.9,31.63 57.14,31.63 52.38,31.63 47.62,31.63 42.86,31.63 
			38.1,31.63 33.33,31.63 33.33,36.39 28.57,36.39 28.57,41.15 33.33,41.15 33.33,45.91 38.1,45.91 42.86,45.91 47.62,45.91 
			52.38,45.91 57.14,45.91 61.9,45.91 66.67,45.91 66.67,41.15 		"/>
		<polygon points="42.86,26.86 47.62,26.86 52.38,26.86 57.14,26.86 61.9,26.86 66.67,26.86 66.67,22.1 61.9,22.1 57.14,22.1 
			52.38,22.1 47.62,22.1 42.86,22.1 38.1,22.1 33.33,22.1 33.33,26.86 38.1,26.86 		"/>
		<polygon points="71.43,31.63 76.19,31.63 76.19,26.86 71.43,26.86 66.67,26.86 66.67,31.63 		"/>
		<polygon points="33.33,31.63 33.33,26.86 28.57,26.86 23.81,26.86 23.81,31.63 28.57,31.63 		"/>
		<polygon points="80.95,36.39 80.95,41.15 80.95,45.91 80.95,50.67 85.71,50.67 85.71,45.91 85.71,41.15 85.71,36.39 85.71,31.63 
			80.95,31.63 76.19,31.63 76.19,36.39 		"/>
		<polygon points="19.05,41.15 19.05,36.39 23.81,36.39 23.81,31.63 19.05,31.63 14.29,31.63 14.29,36.39 14.29,41.15 14.29,45.91 
			14.29,50.67 19.05,50.67 19.05,45.91 		"/>
		<polygon points="61.9,55.44 57.14,55.44 57.14,60.2 61.9,60.2 66.67,60.2 71.43,60.2 71.43,55.44 66.67,55.44 		"/>
		<polygon points="47.62,60.2 42.86,60.2 42.86,64.96 47.62,64.96 52.38,64.96 57.14,64.96 57.14,60.2 52.38,60.2 		"/>
		<polygon points="33.33,60.2 38.1,60.2 42.86,60.2 42.86,55.44 38.1,55.44 33.33,55.44 28.57,55.44 28.57,60.2 		"/>
	</g>
</g>
<g id="House" class="st0">
	<g class="st5">
		<polygon class="st15" points="19.05,58.97 19.05,63.73 19.05,68.49 23.81,68.49 23.81,63.73 23.81,58.97 23.81,54.2 23.81,49.44 
			19.05,49.44 19.05,54.2 		"/>
		<polygon class="st15" points="38.09,49.44 38.09,44.68 33.33,44.68 28.57,44.68 28.57,49.44 33.33,49.44 		"/>
		<rect x="66.66" y="44.68" class="st15" width="4.77" height="4.76"/>
		<polygon class="st15" points="42.86,44.68 42.86,49.44 47.62,49.44 47.62,44.68 47.62,39.92 52.38,39.92 57.14,39.92 57.14,44.68 
			57.14,49.44 61.9,49.44 61.9,44.68 61.9,39.92 61.9,35.16 57.14,35.16 52.38,35.16 47.62,35.16 42.86,35.16 42.86,39.92 		"/>
		<polygon class="st16" points="52.38,73.25 47.62,73.25 42.86,73.25 42.86,78.01 38.09,78.01 33.33,78.01 28.57,78.01 28.57,82.77 
			28.57,87.54 28.57,92.3 28.57,97.06 33.33,97.06 38.09,97.06 42.86,97.06 47.62,97.06 47.62,92.3 47.62,87.54 47.62,82.77 
			52.38,82.77 57.14,82.77 57.14,87.54 57.14,92.3 57.14,97.06 61.9,97.06 66.66,97.06 66.66,92.3 66.66,87.54 66.66,82.77 
			66.66,78.01 61.9,78.01 61.9,73.25 57.14,73.25 		"/>
		<polygon class="st17" points="38.09,78.01 42.86,78.01 42.86,73.25 38.09,73.25 33.33,73.25 28.57,73.25 28.57,78.01 33.33,78.01 
					"/>
		<polygon class="st17" points="52.38,68.49 47.62,68.49 42.86,68.49 42.86,73.25 47.62,73.25 52.38,73.25 57.14,73.25 61.9,73.25 
			61.9,68.49 57.14,68.49 		"/>
		<polygon class="st16" points="76.19,58.97 76.19,54.2 76.19,49.44 76.19,44.68 71.43,44.68 71.43,49.44 66.66,49.44 66.66,54.2 
			61.9,54.2 57.14,54.2 52.38,54.2 47.62,54.2 42.86,54.2 38.09,54.2 38.09,49.44 33.33,49.44 28.57,49.44 23.81,49.44 23.81,54.2 
			23.81,58.97 23.81,63.73 23.81,68.49 28.57,68.49 33.33,68.49 38.09,68.49 42.86,68.49 42.86,63.73 47.62,63.73 52.38,63.73 
			57.14,63.73 61.9,63.73 61.9,68.49 66.66,68.49 71.43,68.49 76.19,68.49 76.19,63.73 		"/>
		<polygon class="st17" points="66.66,78.01 66.66,82.77 66.66,87.54 66.66,92.3 66.66,97.06 71.43,97.06 76.19,97.06 76.19,92.3 
			76.19,87.54 76.19,82.77 76.19,78.01 76.19,73.25 71.43,73.25 66.66,73.25 61.9,73.25 61.9,78.01 		"/>
		<polygon class="st17" points="76.19,49.44 76.19,54.2 76.19,58.97 76.19,63.73 76.19,68.49 80.95,68.49 85.71,68.49 85.71,63.73 
			85.71,58.97 85.71,54.2 85.71,49.44 80.95,49.44 		"/>
		<polygon points="85.71,49.44 85.71,54.2 85.71,58.97 85.71,63.73 85.71,68.49 80.95,68.49 76.19,68.49 71.43,68.49 66.66,68.49 
			61.9,68.49 61.9,73.25 66.66,73.25 71.43,73.25 76.19,73.25 76.19,78.01 76.19,82.77 76.19,87.54 76.19,92.3 76.19,97.06 
			71.43,97.06 66.66,97.06 61.9,97.06 57.14,97.06 57.14,92.3 57.14,87.54 57.14,82.77 52.38,82.77 47.62,82.77 47.62,87.54 
			47.62,92.3 47.62,97.06 42.86,97.06 38.09,97.06 33.33,97.06 28.57,97.06 28.57,92.3 28.57,87.54 28.57,82.77 28.57,78.01 
			28.57,73.25 33.33,73.25 38.09,73.25 42.86,73.25 42.86,68.49 38.09,68.49 33.33,68.49 28.57,68.49 23.81,68.49 19.05,68.49 
			19.05,63.73 19.05,58.97 19.05,54.2 19.05,49.44 14.28,49.44 14.28,54.2 14.28,58.97 14.28,63.73 14.28,68.49 14.28,73.25 
			19.05,73.25 23.81,73.25 23.81,78.01 23.81,82.77 23.81,87.54 23.81,92.3 23.81,97.06 19.05,97.06 19.05,101.82 23.81,101.82 
			23.81,106.58 28.57,106.58 33.33,106.58 38.09,106.58 42.86,106.58 47.62,106.58 52.38,106.58 57.14,106.58 61.9,106.58 
			66.66,106.58 71.43,106.58 76.19,106.58 80.95,106.58 80.95,101.82 85.71,101.82 85.71,97.06 80.95,97.06 80.95,92.3 80.95,87.54 
			80.95,82.77 80.95,78.01 80.95,73.25 85.71,73.25 90.47,73.25 90.47,68.49 90.47,63.73 90.47,58.97 90.47,54.2 90.47,49.44 		"/>
		<polygon points="57.14,63.73 52.38,63.73 47.62,63.73 42.86,63.73 42.86,68.49 47.62,68.49 52.38,68.49 57.14,68.49 61.9,68.49 
			61.9,63.73 		"/>
		<polygon points="52.38,35.16 57.14,35.16 61.9,35.16 61.9,30.39 57.14,30.39 52.38,30.39 47.62,30.39 42.86,30.39 42.86,35.16 
			47.62,35.16 		"/>
		<polygon points="28.57,49.44 28.57,44.68 33.33,44.68 38.09,44.68 38.09,49.44 38.09,54.2 42.86,54.2 47.62,54.2 52.38,54.2 
			57.14,54.2 61.9,54.2 66.66,54.2 66.66,49.44 66.66,44.68 71.43,44.68 76.19,44.68 76.19,49.44 80.95,49.44 85.71,49.44 
			85.71,44.68 80.95,44.68 80.95,39.92 76.19,39.92 71.43,39.92 66.66,39.92 66.66,35.16 61.9,35.16 61.9,39.92 61.9,44.68 
			61.9,49.44 57.14,49.44 57.14,44.68 57.14,39.92 52.38,39.92 47.62,39.92 47.62,44.68 47.62,49.44 42.86,49.44 42.86,44.68 
			42.86,39.92 42.86,35.16 38.09,35.16 38.09,39.92 33.33,39.92 28.57,39.92 23.81,39.92 23.81,44.68 19.05,44.68 19.05,49.44 
			23.81,49.44 		"/>
	</g>
</g>
</svg>
