<svg id="Layer_1_copy" data-name="Layer 1 copy" xmlns="http://www.w3.org/2000/svg" viewBox="0 0 80.95 90.48"><defs><style>.cls-1{fill:#00ad00;}.cls-2{fill:#63db63;}.cls-3{fill:#00a004;}.cls-4{fill:#367536;}</style></defs><polygon points="76.19 71.43 76.19 66.67 71.42 66.67 66.66 66.67 66.66 61.91 66.66 57.14 66.66 52.38 66.66 47.62 66.66 42.86 66.66 38.1 66.66 33.34 66.66 28.57 61.9 28.57 57.14 28.57 57.14 33.34 61.9 33.34 61.9 38.1 61.9 42.86 61.9 47.62 61.9 52.38 61.9 57.14 61.9 61.91 61.9 66.67 61.9 71.43 57.14 71.43 57.14 76.19 52.38 76.19 52.38 80.95 47.61 80.95 47.61 85.72 42.85 85.72 38.09 85.72 33.33 85.72 28.57 85.72 23.81 85.72 23.81 80.95 19.04 80.95 19.04 76.19 14.28 76.19 14.28 71.43 9.52 71.43 9.52 66.67 9.52 61.91 9.52 57.14 9.52 52.38 9.52 47.62 9.52 42.86 9.52 38.1 9.52 33.34 14.28 33.34 14.28 28.57 9.52 28.57 4.76 28.57 4.76 33.34 4.76 38.1 4.76 42.86 4.76 47.62 4.76 52.38 4.76 57.14 4.76 61.91 4.76 66.67 4.76 71.43 4.76 76.19 9.52 76.19 9.52 80.95 14.28 80.95 14.28 85.72 19.04 85.72 19.04 90.48 23.81 90.48 28.57 90.48 33.33 90.48 38.09 90.48 42.85 90.48 47.61 90.48 52.38 90.48 52.38 85.72 57.14 85.72 61.9 85.72 66.66 85.72 71.42 85.72 71.42 80.95 76.19 80.95 80.95 80.95 80.95 76.19 80.95 71.43 76.19 71.43"/><polygon class="cls-1" points="14.28 28.57 14.28 23.81 9.52 23.81 9.52 19.05 9.52 14.29 4.76 14.29 4.76 19.05 4.76 23.81 4.76 28.57 9.52 28.57 14.28 28.57"/><polygon class="cls-1" points="19.04 66.67 19.04 61.91 19.04 57.14 19.04 52.38 19.04 47.62 19.04 42.86 19.04 38.1 14.28 38.1 14.28 33.34 9.52 33.34 9.52 38.1 9.52 42.86 9.52 47.62 9.52 52.38 9.52 57.14 9.52 61.91 9.52 66.67 9.52 71.43 14.28 71.43 14.28 76.19 19.04 76.19 19.04 71.43 19.04 66.67"/><polygon class="cls-1" points="38.09 76.19 38.09 71.43 38.09 66.67 38.09 61.91 38.09 57.14 38.09 52.38 38.09 47.62 38.09 42.86 33.33 42.86 28.57 42.86 28.57 47.62 28.57 52.38 28.57 57.14 28.57 61.91 28.57 66.67 28.57 71.43 28.57 76.19 28.57 80.95 28.57 85.72 33.33 85.72 38.09 85.72 38.09 80.95 38.09 76.19"/><polygon class="cls-1" points="33.33 38.1 38.09 38.1 38.09 33.34 38.09 28.57 33.33 28.57 28.57 28.57 28.57 33.34 28.57 38.1 33.33 38.1"/><polygon class="cls-2" points="28.57 76.19 28.57 71.43 28.57 66.67 28.57 61.91 28.57 57.14 28.57 52.38 28.57 47.62 28.57 42.86 28.57 38.1 23.81 38.1 19.04 38.1 19.04 42.86 19.04 47.62 19.04 52.38 19.04 57.14 19.04 61.91 19.04 66.67 19.04 71.43 19.04 76.19 19.04 80.95 23.81 80.95 23.81 85.72 28.57 85.72 28.57 80.95 28.57 76.19"/><polygon class="cls-2" points="9.52 19.05 9.52 23.81 14.28 23.81 14.28 28.57 19.04 28.57 19.04 33.34 23.81 33.34 28.57 33.34 28.57 28.57 33.33 28.57 38.09 28.57 38.09 33.34 42.85 33.34 47.61 33.34 47.61 28.57 52.38 28.57 52.38 23.81 47.61 23.81 42.85 23.81 38.09 23.81 33.33 23.81 28.57 23.81 23.81 23.81 19.04 23.81 19.04 19.05 14.28 19.05 14.28 14.29 19.04 14.29 19.04 9.53 14.28 9.53 9.52 9.53 9.52 14.29 9.52 19.05"/><rect class="cls-1" x="14.28" y="28.57" width="4.76" height="4.77"/><polygon class="cls-2" points="47.61 71.43 47.61 66.67 47.61 61.91 47.61 57.14 47.61 52.38 47.61 47.62 47.61 42.86 47.61 38.1 42.85 38.1 42.85 42.86 42.85 47.62 42.85 52.38 42.85 57.14 42.85 61.91 42.85 66.67 42.85 71.43 42.85 76.19 42.85 80.95 42.85 85.72 47.61 85.72 47.61 80.95 47.61 76.19 47.61 71.43"/><rect class="cls-2" x="52.38" y="19.05" width="4.76" height="4.76"/><polygon class="cls-2" points="52.38 9.53 52.38 14.29 57.14 14.29 57.14 19.05 61.9 19.05 61.9 14.29 61.9 9.53 57.14 9.53 52.38 9.53"/><polygon class="cls-2" points="23.81 9.53 28.57 9.53 33.33 9.53 38.09 9.53 42.85 9.53 47.61 9.53 52.38 9.53 52.38 4.76 47.61 4.76 42.85 4.76 38.09 4.76 33.33 4.76 28.57 4.76 23.81 4.76 19.04 4.76 19.04 9.53 23.81 9.53"/><polygon class="cls-3" points="42.85 76.19 42.85 71.43 42.85 66.67 42.85 61.91 42.85 57.14 42.85 52.38 42.85 47.62 42.85 42.86 38.09 42.86 38.09 47.62 38.09 52.38 38.09 57.14 38.09 61.91 38.09 66.67 38.09 71.43 38.09 76.19 38.09 80.95 38.09 85.72 42.85 85.72 42.85 80.95 42.85 76.19"/><rect class="cls-3" x="38.09" y="33.34" width="4.76" height="4.76"/><polygon class="cls-4" points="52.38 38.1 52.38 42.86 52.38 47.62 52.38 52.38 52.38 57.14 52.38 61.91 52.38 66.67 52.38 71.43 52.38 76.19 57.14 76.19 57.14 71.43 61.9 71.43 61.9 66.67 61.9 61.91 61.9 57.14 61.9 52.38 61.9 47.62 61.9 42.86 61.9 38.1 61.9 33.34 57.14 33.34 57.14 38.1 52.38 38.1"/><polygon class="cls-3" points="52.38 66.67 52.38 61.91 52.38 57.14 52.38 52.38 52.38 47.62 52.38 42.86 52.38 38.1 47.61 38.1 47.61 42.86 47.61 47.62 47.61 52.38 47.61 57.14 47.61 61.91 47.61 66.67 47.61 71.43 47.61 76.19 47.61 80.95 52.38 80.95 52.38 76.19 52.38 71.43 52.38 66.67"/><rect class="cls-3" x="47.61" y="28.57" width="4.77" height="4.77"/><polygon class="cls-4" points="66.66 19.05 66.66 14.29 61.9 14.29 61.9 19.05 57.14 19.05 57.14 23.81 52.38 23.81 52.38 28.57 52.38 33.34 57.14 33.34 57.14 28.57 61.9 28.57 66.66 28.57 66.66 23.81 66.66 19.05"/><polygon points="57.14 19.05 57.14 14.29 52.38 14.29 52.38 9.53 47.61 9.53 42.85 9.53 38.09 9.53 33.33 9.53 28.57 9.53 23.81 9.53 19.04 9.53 19.04 14.29 14.28 14.29 14.28 19.05 19.04 19.05 19.04 23.81 23.81 23.81 28.57 23.81 33.33 23.81 38.09 23.81 42.85 23.81 47.61 23.81 52.38 23.81 52.38 19.05 57.14 19.05"/><polygon points="28.57 4.76 33.33 4.76 38.09 4.76 42.85 4.76 47.61 4.76 52.38 4.76 52.38 0 47.61 0 42.85 0 38.09 0 33.33 0 28.57 0 23.81 0 19.04 0 19.04 4.76 23.81 4.76 28.57 4.76"/><polygon points="57.14 9.53 61.9 9.53 61.9 4.76 57.14 4.76 52.38 4.76 52.38 9.53 57.14 9.53"/><polygon points="19.04 9.53 19.04 4.76 14.28 4.76 9.52 4.76 9.52 9.53 14.28 9.53 19.04 9.53"/><polygon points="66.66 14.29 66.66 19.05 66.66 23.81 66.66 28.57 71.42 28.57 71.42 23.81 71.42 19.05 71.42 14.29 71.42 9.53 66.66 9.53 61.9 9.53 61.9 14.29 66.66 14.29"/><polygon points="4.76 19.05 4.76 14.29 9.52 14.29 9.52 9.53 4.76 9.53 0 9.53 0 14.29 0 19.05 0 23.81 0 28.57 4.76 28.57 4.76 23.81 4.76 19.05"/><polygon points="47.61 33.34 42.85 33.34 42.85 38.1 47.61 38.1 52.38 38.1 57.14 38.1 57.14 33.34 52.38 33.34 47.61 33.34"/><polygon points="33.33 38.1 28.57 38.1 28.57 42.86 33.33 42.86 38.09 42.86 42.85 42.86 42.85 38.1 38.09 38.1 33.33 38.1"/><polygon points="19.04 38.1 23.81 38.1 28.57 38.1 28.57 33.34 23.81 33.34 19.04 33.34 14.28 33.34 14.28 38.1 19.04 38.1"/></svg>