<svg id="Layer_12" data-name="Layer 12" xmlns="http://www.w3.org/2000/svg" viewBox="0 0 76.19 76.19"><defs><style>.cls-1{fill:none;}.cls-2{fill:#6e503c;}.cls-3{fill:#b89b85;}.cls-4{fill:#0f0000;}.cls-5{fill:#f8d02e;}</style></defs><rect class="cls-1" x="23.81" y="66.67" width="4.76" height="4.76"/><rect class="cls-1" x="42.85" y="66.67" width="4.77" height="4.76"/><polygon class="cls-1" points="38.09 61.91 33.33 61.91 33.33 66.67 33.33 71.43 38.09 71.43 38.09 66.67 38.09 61.91"/><polygon class="cls-2" points="57.14 47.62 57.14 52.39 61.9 52.39 61.9 57.15 61.9 61.91 66.66 61.91 66.66 66.67 71.43 66.67 71.43 61.91 71.43 57.15 66.66 57.15 66.66 52.39 66.66 47.62 61.9 47.62 57.14 47.62"/><rect class="cls-2" x="38.09" y="4.77" width="4.76" height="4.76"/><rect class="cls-2" x="42.85" y="9.53" width="4.77" height="4.76"/><polygon class="cls-2" points="47.62 19.05 47.62 23.81 52.38 23.81 52.38 19.05 52.38 14.29 47.62 14.29 47.62 19.05"/><polygon class="cls-3" points="14.28 28.58 19.04 28.58 19.04 23.81 14.28 23.81 9.52 23.81 9.52 28.58 14.28 28.58"/><polygon class="cls-3" points="57.14 28.58 61.9 28.58 66.66 28.58 71.43 28.58 71.43 23.81 66.66 23.81 61.9 23.81 57.14 23.81 52.38 23.81 52.38 28.58 57.14 28.58"/><polygon class="cls-4" points="38.09 33.34 38.09 38.1 42.85 38.1 42.85 33.34 42.85 28.58 38.09 28.58 38.09 33.34"/><polygon class="cls-4" points="33.33 38.1 33.33 33.34 33.33 28.58 28.57 28.58 28.57 33.34 28.57 38.1 33.33 38.1"/><path class="cls-5" d="M17.79,84.61h4.76V79.85h9.53V75.09H41.6V70.33h4.76v4.76h9.53v4.76h9.52v4.76h4.76V75.09H65.41V65.57H60.65V60.8h4.76V56h4.76V51.28h4.76V46.52h-19V37H51.12V27.47H46.36V22.71H41.6v4.76H36.84V37H32.08v9.53H13v4.76h4.76V56h4.76V60.8h4.76v4.77H22.55v9.52H17.79v9.52ZM51.12,46.52v4.76H46.36V41.76h4.76ZM36.84,41.76H41.6v9.52H36.84V41.76Z" transform="translate(-8.27 -13.18)"/><rect x="71.43" y="71.43" width="4.76" height="4.76"/><polygon points="71.43 66.67 76.19 66.67 76.19 61.91 76.19 57.15 71.43 57.15 71.43 61.91 71.43 66.67"/><polygon points="66.66 57.15 71.43 57.15 71.43 52.39 71.43 47.62 66.66 47.62 66.66 52.39 66.66 57.15"/><rect x="52.38" y="47.62" width="4.76" height="4.77"/><polygon points="57.14 61.91 61.9 61.91 61.9 57.15 61.9 52.39 57.14 52.39 57.14 57.15 57.14 61.91"/><polygon points="66.66 61.91 61.9 61.91 61.9 66.67 61.9 71.43 57.14 71.43 57.14 66.67 52.38 66.67 47.62 66.67 47.62 71.43 52.38 71.43 52.38 76.19 57.14 76.19 61.9 76.19 66.66 76.19 66.66 71.43 71.43 71.43 71.43 66.67 66.66 66.67 66.66 61.91"/><rect x="42.85" y="71.43" width="4.77" height="4.76"/><rect x="23.81" y="71.43" width="4.76" height="4.76"/><rect x="33.33" y="71.43" width="4.76" height="4.76"/><polygon points="47.62 66.67 47.62 61.91 42.85 61.91 38.09 61.91 38.09 66.67 38.09 71.43 42.85 71.43 42.85 66.67 47.62 66.67"/><rect x="33.33" y="57.15" width="4.76" height="4.76"/><polygon points="33.33 61.91 28.57 61.91 23.81 61.91 23.81 66.67 28.57 66.67 28.57 71.43 33.33 71.43 33.33 66.67 33.33 61.91"/><polygon points="19.04 66.67 14.28 66.67 14.28 71.43 9.52 71.43 9.52 66.67 9.52 61.91 4.76 61.91 4.76 66.67 4.76 71.43 4.76 76.19 9.52 76.19 14.28 76.19 19.04 76.19 19.04 71.43 23.81 71.43 23.81 66.67 19.04 66.67"/><polygon points="14.28 57.15 14.28 52.39 9.52 52.39 9.52 57.15 9.52 61.91 14.28 61.91 14.28 57.15"/><rect x="14.28" y="47.62" width="4.76" height="4.77"/><rect x="9.52" y="42.86" width="4.76" height="4.76"/><rect x="4.76" y="38.1" width="4.76" height="4.76"/><polygon points="9.52 33.34 14.28 33.34 19.04 33.34 23.81 33.34 23.81 28.58 23.81 23.81 28.57 23.81 28.57 19.05 28.57 14.29 23.81 14.29 23.81 19.05 19.04 19.05 14.28 19.05 9.52 19.05 9.52 23.81 14.28 23.81 19.04 23.81 19.04 28.58 14.28 28.58 9.52 28.58 9.52 23.81 4.76 23.81 4.76 28.58 0 28.58 0 33.34 0 38.1 4.76 38.1 4.76 33.34 9.52 33.34"/><rect x="28.57" y="9.53" width="4.76" height="4.76"/><rect x="33.33" y="4.77" width="4.76" height="4.76"/><rect x="38.09" y="9.53" width="4.76" height="4.76"/><polygon points="47.62 14.29 42.85 14.29 42.85 19.05 42.85 23.81 47.62 23.81 47.62 19.05 47.62 14.29"/><polygon points="71.43 19.05 66.66 19.05 61.9 19.05 57.14 19.05 57.14 14.29 52.38 14.29 52.38 19.05 52.38 23.81 57.14 23.81 61.9 23.81 66.66 23.81 71.43 23.81 71.43 28.58 66.66 28.58 61.9 28.58 57.14 28.58 52.38 28.58 52.38 23.81 47.62 23.81 47.62 28.58 47.62 33.34 52.38 33.34 57.14 33.34 61.9 33.34 66.66 33.34 66.66 38.1 61.9 38.1 61.9 42.86 57.14 42.86 57.14 47.62 61.9 47.62 66.66 47.62 66.66 42.86 71.43 42.86 71.43 38.1 71.43 33.34 76.19 33.34 76.19 28.58 76.19 23.81 76.19 19.05 71.43 19.05"/><rect x="47.62" y="9.53" width="4.76" height="4.76"/><rect x="42.85" y="4.77" width="4.77" height="4.76"/><rect x="38.09" width="4.76" height="4.77"/></svg>